<svg width="196" height="29" fill="none" xmlns="http://www.w3.org/2000/svg"><path d="M8.544 6.08h1.584l2.4 6.048 2.424-6.048h1.608l-2.976 7.272 3.264 7.704L23.016 5.96h1.824L17.616 23h-1.488l-3.576-8.424L8.952 23H7.488L.288 5.96h1.8L8.28 21.056l3.24-7.704L8.544 6.08zm22.21 17.16a6.218 6.218 0 0 1-2.52-.504 6.44 6.44 0 0 1-1.967-1.416c-.56-.608-1-1.304-1.32-2.088a6.91 6.91 0 0 1-.456-2.52c0-.88.152-1.704.456-2.472a6.532 6.532 0 0 1 1.296-2.04 6.045 6.045 0 0 1 1.992-1.392 5.918 5.918 0 0 1 2.496-.528c.912 0 1.744.176 2.496.528.768.336 1.424.8 1.968 1.392a6.59 6.59 0 0 1 1.728 4.488v.384a.966.966 0 0 1-.024.264H26.195c.048.672.2 1.296.456 1.872.272.56.616 1.048 1.032 1.464.416.416.888.744 1.416.984a4.494 4.494 0 0 0 2.928.168c.4-.112.768-.264 1.104-.456.336-.192.64-.424.912-.696.272-.288.48-.6.624-.936l1.416.384a4.313 4.313 0 0 1-.816 1.272c-.352.368-.76.696-1.224.984-.464.272-.976.48-1.536.624-.56.16-1.144.24-1.752.24zm4.609-7.152a4.802 4.802 0 0 0-.48-1.824 4.662 4.662 0 0 0-1.008-1.44c-.4-.4-.872-.712-1.416-.936a4.317 4.317 0 0 0-1.704-.336 4.565 4.565 0 0 0-3.168 1.272c-.4.4-.728.88-.984 1.44a5.642 5.642 0 0 0-.432 1.824h9.192zM45.56 23.24a5.245 5.245 0 0 1-2.736-.744 5.515 5.515 0 0 1-1.92-1.92V23H39.44V5.48h1.632v7.632c.56-.848 1.232-1.528 2.016-2.04.784-.528 1.696-.792 2.736-.792.88 0 1.664.184 2.352.552a5.325 5.325 0 0 1 1.776 1.488 6.422 6.422 0 0 1 1.128 2.088c.272.768.408 1.56.408 2.376 0 .88-.152 1.712-.456 2.496a6.716 6.716 0 0 1-1.248 2.064 6.13 6.13 0 0 1-1.896 1.392 5.437 5.437 0 0 1-2.328.504zm-.384-1.44c.688 0 1.312-.136 1.872-.408a4.658 4.658 0 0 0 1.464-1.128c.416-.48.736-1.016.96-1.608.24-.608.36-1.232.36-1.872 0-.656-.112-1.288-.336-1.896a4.83 4.83 0 0 0-.912-1.608 4.062 4.062 0 0 0-1.416-1.128 3.787 3.787 0 0 0-1.8-.432c-.496 0-.96.088-1.392.264-.432.16-.832.384-1.2.672a5.344 5.344 0 0 0-.984 1.008c-.288.368-.528.76-.72 1.176v3.888c.064.432.232.84.504 1.224.288.368.624.688 1.008.96.4.272.824.488 1.272.648.464.16.904.24 1.32.24zm9.272 1.2V5.96h5.784c1.36 0 2.544.224 3.552.672 1.023.448 1.871 1.056 2.544 1.824a7.435 7.435 0 0 1 1.536 2.712c.352 1.024.528 2.12.528 3.288 0 1.296-.192 2.472-.576 3.528a7.68 7.68 0 0 1-1.656 2.688c-.704.736-1.56 1.312-2.569 1.728-.992.4-2.111.6-3.36.6H54.45zm12.264-8.544c0-1.024-.144-1.96-.432-2.808a6.258 6.258 0 0 0-1.273-2.232 5.41 5.41 0 0 0-2.015-1.44c-.8-.352-1.72-.528-2.76-.528h-4.104v14.064h4.104c1.056 0 1.984-.176 2.784-.528a5.856 5.856 0 0 0 2.04-1.488 6.443 6.443 0 0 0 1.224-2.232c.287-.864.431-1.8.431-2.808zm9.956 8.784a6.218 6.218 0 0 1-2.52-.504 6.44 6.44 0 0 1-1.968-1.416c-.56-.608-1-1.304-1.32-2.088a6.91 6.91 0 0 1-.456-2.52c0-.88.152-1.704.456-2.472a6.532 6.532 0 0 1 1.296-2.04 6.045 6.045 0 0 1 1.992-1.392 5.918 5.918 0 0 1 2.496-.528c.912 0 1.744.176 2.496.528.768.336 1.424.8 1.968 1.392a6.59 6.59 0 0 1 1.728 4.488v.384a.966.966 0 0 1-.024.264H72.109c.048.672.2 1.296.456 1.872.272.56.616 1.048 1.032 1.464.416.416.888.744 1.416.984a4.494 4.494 0 0 0 2.928.168c.4-.112.768-.264 1.104-.456.336-.192.64-.424.912-.696.272-.288.48-.6.624-.936l1.416.384a4.313 4.313 0 0 1-.816 1.272c-.352.368-.76.696-1.224.984-.464.272-.976.48-1.536.624-.56.16-1.144.24-1.752.24zm4.608-7.152a4.802 4.802 0 0 0-.48-1.824 4.662 4.662 0 0 0-1.008-1.44c-.4-.4-.872-.712-1.416-.936a4.317 4.317 0 0 0-1.704-.336 4.565 4.565 0 0 0-3.168 1.272c-.4.4-.728.88-.984 1.44a5.642 5.642 0 0 0-.432 1.824h9.192zm8.23 7.152c-.976 0-1.928-.16-2.856-.48a6.864 6.864 0 0 1-2.4-1.392l.744-1.104c.704.576 1.416 1.008 2.136 1.296.736.288 1.52.432 2.352.432 1.008 0 1.808-.2 2.4-.6.608-.416.912-1 .912-1.752 0-.352-.08-.64-.24-.864-.16-.24-.4-.448-.72-.624-.304-.176-.696-.328-1.176-.456a23.102 23.102 0 0 0-1.632-.432 24.082 24.082 0 0 1-1.872-.528 6.004 6.004 0 0 1-1.32-.6 2.329 2.329 0 0 1-.768-.816c-.16-.336-.24-.752-.24-1.248 0-.624.12-1.176.36-1.656.256-.48.592-.872 1.008-1.176.432-.32.928-.56 1.488-.72a6.786 6.786 0 0 1 1.824-.24c.96 0 1.832.16 2.616.48.784.304 1.416.712 1.896 1.224l-.792.96a4.377 4.377 0 0 0-1.704-1.08 5.96 5.96 0 0 0-2.064-.36c-.432 0-.832.048-1.2.144-.368.08-.696.216-.984.408-.272.192-.488.44-.648.744-.16.288-.24.632-.24 1.032 0 .336.056.608.168.816.112.208.296.392.552.552.256.144.576.28.96.408.4.112.88.232 1.44.36.8.192 1.504.384 2.112.576.608.192 1.112.416 1.512.672.416.256.728.568.936.936.208.368.312.816.312 1.344 0 1.152-.44 2.064-1.32 2.736-.88.672-2.064 1.008-3.552 1.008zM97.05 23V10.496h1.632V23H97.05zm0-15.12v-2.4h1.632v2.4H97.05zm10.243 15.288a5.336 5.336 0 0 1-2.376-.528 6.476 6.476 0 0 1-1.848-1.44 6.666 6.666 0 0 1-1.2-2.04 6.714 6.714 0 0 1-.432-2.376c0-.864.136-1.688.408-2.472.288-.8.688-1.496 1.2-2.088a5.841 5.841 0 0 1 1.824-1.416 5.336 5.336 0 0 1 2.376-.528c1.072 0 2 .272 2.784.816a7.55 7.55 0 0 1 2.016 2.016v-2.616h1.464v12.552c0 .864-.168 1.624-.504 2.28a4.713 4.713 0 0 1-1.32 1.68c-.544.448-1.192.784-1.944 1.008a8.037 8.037 0 0 1-2.352.336c-1.44 0-2.6-.256-3.48-.768a6.135 6.135 0 0 1-2.136-2.064l1.008-.792c.496.8 1.152 1.384 1.968 1.752a6.122 6.122 0 0 0 2.64.576 5.58 5.58 0 0 0 1.728-.264 3.868 3.868 0 0 0 1.416-.744c.416-.32.744-.736.984-1.248.24-.496.36-1.08.36-1.752v-2.472a5.21 5.21 0 0 1-1.968 1.896 5.296 5.296 0 0 1-2.616.696zm.456-1.368c.48 0 .952-.088 1.416-.264.464-.176.88-.408 1.248-.696.384-.304.704-.64.96-1.008a3.07 3.07 0 0 0 .504-1.128V14.84a4.87 4.87 0 0 0-.72-1.248 4.999 4.999 0 0 0-2.28-1.632 3.773 3.773 0 0 0-1.32-.24c-.704 0-1.336.152-1.896.456a4.401 4.401 0 0 0-1.392 1.152 5.372 5.372 0 0 0-.888 1.632 6.103 6.103 0 0 0-.288 1.848 5.3 5.3 0 0 0 1.344 3.528c.432.448.928.808 1.488 1.08.56.256 1.168.384 1.824.384zm19.876 1.2h-1.632v-6.984c0-1.488-.224-2.568-.672-3.24-.432-.672-1.104-1.008-2.016-1.008-.48 0-.96.088-1.44.264a5.04 5.04 0 0 0-1.344.744c-.4.32-.76.704-1.08 1.152a4.33 4.33 0 0 0-.696 1.416V23h-1.632V10.496h1.488v2.832c.512-.912 1.24-1.648 2.184-2.208.96-.56 2-.84 3.12-.84.688 0 1.272.128 1.752.384s.864.616 1.152 1.08c.288.464.496 1.032.623 1.704.129.672.193 1.416.193 2.232V23zm3.24-5.784v-1.512h7.008v1.512h-7.008zM141.302 5.48h1.632v14.688c0 .464.128.832.384 1.104.256.256.616.384 1.08.384a4.12 4.12 0 0 0 1.296-.264l.288 1.32c-.304.128-.68.232-1.128.312-.432.08-.808.12-1.128.12-.752 0-1.344-.208-1.776-.624-.432-.432-.648-1.032-.648-1.8V5.48zm11.795 17.76c-.912 0-1.744-.168-2.496-.504a6.44 6.44 0 0 1-1.968-1.416 6.48 6.48 0 0 1-1.272-2.064 6.778 6.778 0 0 1-.456-2.472c0-.88.152-1.712.456-2.496a6.839 6.839 0 0 1 1.296-2.064 6.44 6.44 0 0 1 1.968-1.416 5.758 5.758 0 0 1 2.472-.528c.896 0 1.72.176 2.472.528a6.077 6.077 0 0 1 1.968 1.416c.56.592.992 1.28 1.296 2.064.32.784.48 1.616.48 2.496 0 .864-.152 1.688-.456 2.472a6.268 6.268 0 0 1-1.296 2.064 6.077 6.077 0 0 1-1.968 1.416c-.752.336-1.584.504-2.496.504zm-4.536-6.432c0 .704.12 1.36.36 1.968.24.592.56 1.12.96 1.584.416.448.896.8 1.44 1.056.56.256 1.152.384 1.776.384.624 0 1.208-.128 1.752-.384a4.9 4.9 0 0 0 1.464-1.08 5.3 5.3 0 0 0 1.344-3.576c0-.688-.12-1.336-.36-1.944a4.938 4.938 0 0 0-.984-1.608 4.41 4.41 0 0 0-1.464-1.08 3.864 3.864 0 0 0-1.752-.408c-.624 0-1.208.136-1.752.408a4.486 4.486 0 0 0-1.44 1.08 5.23 5.23 0 0 0-.984 1.632 5.312 5.312 0 0 0-.36 1.968zm18.497 6.36a5.336 5.336 0 0 1-2.376-.528 6.476 6.476 0 0 1-1.848-1.44 6.666 6.666 0 0 1-1.2-2.04 6.714 6.714 0 0 1-.432-2.376c0-.864.136-1.688.408-2.472.288-.8.688-1.496 1.2-2.088a5.841 5.841 0 0 1 1.824-1.416 5.336 5.336 0 0 1 2.376-.528c1.072 0 2 .272 2.784.816a7.55 7.55 0 0 1 2.016 2.016v-2.616h1.464v12.552c0 .864-.168 1.624-.504 2.28a4.713 4.713 0 0 1-1.32 1.68c-.544.448-1.192.784-1.944 1.008a8.037 8.037 0 0 1-2.352.336c-1.44 0-2.6-.256-3.48-.768a6.135 6.135 0 0 1-2.136-2.064l1.008-.792c.496.8 1.152 1.384 1.968 1.752a6.122 6.122 0 0 0 2.64.576 5.58 5.58 0 0 0 1.728-.264 3.868 3.868 0 0 0 1.416-.744c.416-.32.744-.736.984-1.248.24-.496.36-1.08.36-1.752v-2.472a5.21 5.21 0 0 1-1.968 1.896 5.296 5.296 0 0 1-2.616.696zm.456-1.368c.48 0 .952-.088 1.416-.264.464-.176.88-.408 1.248-.696.384-.304.704-.64.96-1.008a3.07 3.07 0 0 0 .504-1.128V14.84a4.87 4.87 0 0 0-.72-1.248 4.999 4.999 0 0 0-2.28-1.632 3.773 3.773 0 0 0-1.32-.24c-.704 0-1.336.152-1.896.456a4.401 4.401 0 0 0-1.392 1.152 5.372 5.372 0 0 0-.888 1.632 6.103 6.103 0 0 0-.288 1.848 5.3 5.3 0 0 0 1.344 3.528c.432.448.928.808 1.488 1.08.56.256 1.168.384 1.824.384z" fill="#fff"/><circle cx="178.5" cy="23.5" r="3.5" fill="#000"/><path d="M188.433 24.13a2.738 2.738 0 0 1-1.521-.429 3.566 3.566 0 0 1-1.053-1.105v4.173h-.884v-9.542h.793v1.313a3.217 3.217 0 0 1 1.079-1.027 2.727 2.727 0 0 1 1.443-.403c.468 0 .897.1 1.287.299.39.19.728.45 1.014.78.286.32.507.693.663 1.118.165.425.247.862.247 1.313 0 .477-.074.927-.221 1.352-.147.425-.36.797-.637 1.118-.269.32-.594.576-.975.767a2.776 2.776 0 0 1-1.235.273zm-.247-.78c.364 0 .693-.078.988-.234.303-.156.559-.36.767-.611.217-.26.381-.55.494-.871.113-.33.169-.667.169-1.014a2.877 2.877 0 0 0-.728-1.911 2.506 2.506 0 0 0-.806-.598 2.232 2.232 0 0 0-.988-.221c-.225 0-.464.048-.715.143a2.77 2.77 0 0 0-.689.364c-.208.147-.39.325-.546.533-.147.2-.238.412-.273.637v2.08c.104.243.234.468.39.676.165.208.347.39.546.546.208.147.429.264.663.351.234.087.477.13.728.13zm4.851-8.84h.884v7.956c0 .251.07.45.208.598.139.139.334.208.585.208a2.216 2.216 0 0 0 .702-.143l.156.715c-.164.07-.368.126-.611.169a3.414 3.414 0 0 1-.611.065c-.407 0-.728-.113-.962-.338-.234-.234-.351-.559-.351-.975V14.51z" fill="#fff"/></svg>